<?xml version="1.0" encoding="iso-8859-1"?>
<!-- Generator: Adobe Illustrator 19.0.0, SVG Export Plug-In . SVG Version: 6.00 Build 0)  -->
<svg version="1.1" id="Capa_1" xmlns="http://www.w3.org/2000/svg" xmlns:xlink="http://www.w3.org/1999/xlink" x="0px" y="0px"
	 viewBox="0 0 413.236 413.236" style="enable-background:new 0 0 413.236 413.236;" xml:space="preserve">
<path style="fill:#FBCF4C;" d="M100.748,405.236c-19.2,1.6-36.8-12.8-38.4-32c0-2.4,0-4,0-6.4v-239.2h220v239.2
	c1.6,19.2-12.8,36.8-32,38.4c-2.4,0-4,0-6.4,0H100.748z"/>
<path style="fill:#EDB248;" d="M244.748,127.636v239.2c1.6,19.2-12.8,36.8-32,38.4c-2.4,0-4,0-6.4,0h36.8
	c19.2,1.6,36.8-12.8,38.4-32c0-2.4,0-4,0-6.4v-239.2H244.748z"/>
<path style="fill:#FFFFFF;" d="M86.348,127.636c-16.8-0.8-29.6-14.4-28.8-31.2s14.4-29.6,31.2-28.8h0.8h1.6l-0.8-0.8v-0.8
	c0-21.6,17.6-39.2,39.2-39.2c8,0,16,2.4,22.4,7.2c16-24.8,48.8-32,73.6-16c3.2,2.4,6.4,4.8,9.6,7.2c10.4,10.4,16,24,16,38.4
	c0.8,0,0.8,0,1.6,0h0.8c18.4-0.8,33.6,13.6,33.6,32c0.8,18.4-13.6,33.6-32,33.6L86.348,127.636L86.348,127.636z"/>
<path style="fill:#F7EEBA;" d="M253.548,62.036h-0.8c-0.8,0-0.8,0-1.6,0c0-29.6-24-53.6-53.6-53.6l0,0c-14.4,0-28,5.6-38.4,16
	c29.6-3.2,56,18.4,59.2,48c0,1.6,0,4,0,5.6c0,0,0.8,0,1.6,0h0.8c18.4,0,32.8,15.2,32.8,33.6l0,0c0,6.4-1.6,12-4.8,16.8h5.6
	c18.4-0.8,32.8-16,32-33.6C286.348,75.636,271.148,61.236,253.548,62.036L253.548,62.036L253.548,62.036z"/>
<path style="fill:#FBCF4C;" d="M282.348,325.236v-35.2h22.4c14.4,0,16-16,16-20.8v-41.6c0-4.8-0.8-20.8-16-20.8h-22.4v-35.2h41.6
	c8.8,0,29.6,4,29.6,38.4v77.6c0,34.4-20,38.4-29.6,38.4L282.348,325.236z"/>
<path style="fill:#EDB248;" d="M323.948,171.636h-24c8.8,0,29.6,4,29.6,38.4v77.6c0,34.4-20,38.4-29.6,38.4h24
	c8.8,0,29.6-4,29.6-38.4v-77.6C352.748,175.636,332.748,171.636,323.948,171.636z"/>
<g>
	<path style="fill:#4A2328;" d="M323.948,163.636h-33.6v-28c0-5.6-2.4-10.4-7.2-13.6c15.2-16,14.4-41.6-1.6-57.6
		c-6.4-5.6-14.4-9.6-23.2-10.4c-4-33.6-34.4-57.6-68-53.6c-16,1.6-30.4,9.6-40,22.4c-24-11.2-52-0.8-62.4,22.4
		c-2.4,4.8-3.2,9.6-4,14.4c-20.8,2.4-35.2,21.6-32.8,42.4c0.8,8,4.8,15.2,9.6,20.8c-4,3.2-6.4,8-6.4,12.8v231.2
		c0,34.4,24,46.4,46.4,46.4h144c34.4,0,46.4-24,46.4-46.4v-33.6h33.6c23.2,0,37.6-17.6,37.6-46.4v-77.6
		C360.748,181.236,346.348,163.636,323.948,163.636z M274.348,366.836c0,11.2-4,30.4-30.4,30.4h-143.2c-11.2,0-30.4-4-30.4-30.4
		v-231.2h204V366.836z M254.348,119.636h-168c-12-0.8-21.6-10.4-20.8-23.2s10.4-21.6,23.2-20.8l0,0l0,0h1.6c4.8,0,8-3.2,8.8-7.2
		c0,0,0,0,0-0.8s0-0.8,0-2.4c0-17.6,14.4-31.2,31.2-31.2c6.4,0,12.8,1.6,17.6,5.6c4,2.4,8.8,1.6,11.2-2.4
		c13.6-21.6,41.6-27.2,63.2-13.6c12.8,8.8,20.8,23.2,20.8,38.4c0,2.4,0.8,4,2.4,5.6s4,2.4,5.6,2.4h1.6c13.6,0,25.6,10.4,25.6,24
		C279.148,108.436,267.948,119.636,254.348,119.636L254.348,119.636z M290.348,214.836h14.4c1.6,0,8,0,8,12.8v41.6
		c0,12.8-5.6,12.8-8,12.8h-14.4V214.836z M344.748,286.836c0,13.6-4,30.4-21.6,30.4h-33.6v-18.4h14.4c14.4,0,24-11.2,24-28.8v-41.6
		c0-17.6-9.6-28.8-24-28.8h-14.4v-19.2h33.6c17.6,0,21.6,16,21.6,30.4V286.836z"/>
	<path style="fill:#4A2328;" d="M99.148,336.436c4.8,0,8-3.2,8-8v-140c0-4.8-3.2-8-8-8s-8,3.2-8,8v140.8
		C91.148,333.236,94.348,336.436,99.148,336.436z"/>
	<path style="fill:#4A2328;" d="M147.948,336.436c4.8,0,8-3.2,8-8v-140c0-4.8-3.2-8-8-8s-8,3.2-8,8v140.8
		C139.948,333.236,143.148,336.436,147.948,336.436z"/>
	<path style="fill:#4A2328;" d="M196.748,336.436c4.8,0,8-3.2,8-8v-140c0-4.8-3.2-8-8-8s-8,3.2-8,8v140.8
		C188.748,333.236,191.948,336.436,196.748,336.436z"/>
	<path style="fill:#4A2328;" d="M244.748,336.436c4.8,0,8-3.2,8-8v-140c0-4.8-3.2-8-8-8s-8,3.2-8,8v140.8
		C236.748,333.236,240.748,336.436,244.748,336.436z"/>
</g>
<g>
</g>
<g>
</g>
<g>
</g>
<g>
</g>
<g>
</g>
<g>
</g>
<g>
</g>
<g>
</g>
<g>
</g>
<g>
</g>
<g>
</g>
<g>
</g>
<g>
</g>
<g>
</g>
<g>
</g>
</svg>
