<?xml version="1.0" encoding="iso-8859-1"?>
<!-- Generator: Adobe Illustrator 19.0.0, SVG Export Plug-In . SVG Version: 6.00 Build 0)  -->
<svg version="1.1" id="Capa_1" xmlns="http://www.w3.org/2000/svg" xmlns:xlink="http://www.w3.org/1999/xlink" x="0px" y="0px"
	 viewBox="0 0 427.319 427.319" style="enable-background:new 0 0 427.319 427.319;" xml:space="preserve">
<path style="fill:#F4A23F;" d="M210.648,420.119h-4c-18.4,0.8-36.8-1.6-54.4-7.2l-8-3.2l3.2-8c3.2-8.8,6.4-17.6,8.8-27.2l2.4-8
	l8,2.4c14.4,4,28.8,5.6,43.2,5.6c16,0,31.2-1.6,47.2-5.6l8-1.6l1.6,8c2.4,9.6,4.8,18.4,8.8,27.2l3.2,8l-8,3.2
	c-17.6,5.6-36,8-54.4,7.2L210.648,420.119z"/>
<path style="fill:#E28539;" d="M274.648,401.719c-3.2-8.8-6.4-17.6-8.8-27.2l-1.6-8l-8,1.6c-6.4,1.6-13.6,3.2-20,4l0.8,2.4
	c2.4,9.6,4.8,18.4,8.8,27.2l3.2,8l-8,3.2c-14.4,4.8-29.6,7.2-44.8,7.2h10.4h8c18.4,0.8,36.8-1.6,54.4-7.2l8-3.2L274.648,401.719z"/>
<path style="fill:#FBCF4C;" d="M209.048,374.519c-15.2,0-30.4-1.6-44.8-5.6l-6.4-1.6l0.8-6.4c4.8-43.2-8.8-104.8-19.2-149.6
	c-4-15.2-7.2-30.4-8.8-46.4c-1.6-25.6-1.6-51.2-0.8-76.8v-8l8,0.8h0.8h0.8h0.8c22.4,5.6,45.6,8,68.8,8.8c4,0,7.2,0,11.2,0l8.8-0.8
	v35.2c0,10.4,8,18.4,18.4,18.4s18.4-8,18.4-18.4v-40l6.4-1.6l8-1.6l9.6-2.4v9.6c1.6,25.6,0.8,52-0.8,77.6
	c-2.4,15.2-4.8,31.2-8.8,46.4c-10.4,44.8-24,106.4-18.4,149.6l0.8,7.2l-6.4,1.6C241.048,372.119,225.048,374.519,209.048,374.519z"
	/>
<path style="fill:#EDB248;" d="M291.448,86.519v-9.6l-9.6,2.4l-8,1.6l-6.4,1.6v40c0,2.4,0,4-0.8,6.4c0,12,0,24-1.6,35.2
	c-2.4,15.2-4.8,31.2-8.8,46.4c-10.4,44.8-24,106.4-18.4,149.6l0.8,7.2l-6.4,1.6c-11.2,3.2-23.2,4.8-35.2,5.6c4,0,8.8,0.8,12.8,0.8
	c16,0,32-2.4,48-5.6l6.4-1.6l-0.8-7.2c-4.8-43.2,8.8-104.8,18.4-149.6c4-15.2,7.2-30.4,8.8-46.4
	C293.048,137.719,293.048,112.119,291.448,86.519z"/>
<circle style="fill:#F4A23F;" cx="210.648" cy="223.319" r="38.4"/>
<path style="fill:#E28539;" d="M210.648,184.919c-4.8,0-8.8,0.8-12.8,2.4c20,7.2,30.4,28.8,23.2,48.8c-4,11.2-12.8,20-23.2,23.2
	c4,1.6,8.8,2.4,12.8,2.4c20.8,0,38.4-16.8,38.4-38.4C249.048,202.519,232.248,184.919,210.648,184.919L210.648,184.919z"/>
<path style="fill:#FFFFFF;" d="M292.248,146.519c0.8-32-0.8-66.4-0.8-70.4c0,0-9.6,2.4-24,5.6v40c0,10.4-8,18.4-18.4,18.4
	s-18.4-8-18.4-18.4v-35.2c-7.2,0.8-13.6,0.8-20,0.8c-26.4-0.8-53.6-4.8-79.2-11.2h-0.8h-1.6l-1.6-0.8c-12-7.2-16.8-22.4-9.6-34.4
	s22.4-16.8,34.4-9.6c7.2,4,12,11.2,12.8,20h2.4c-1.6-3.2-2.4-7.2-2.4-11.2c0-17.6,14.4-32,32-32s32,14.4,32,32
	c0,3.2-0.8,6.4-1.6,9.6h3.2c2.4-11.2,13.6-18.4,24.8-16c8.8,1.6,15.2,8.8,16.8,16.8l0,0h0.8c2.4-11.2,12.8-19.2,24-16.8
	c9.6,1.6,17.6,10.4,17.6,20.8v81.6c0,7.2-4,14.4-10.4,17.6l-12.8,8L292.248,146.519z"/>
<g>
	<path style="fill:#F7EEBA;" d="M293.048,32.919c-4,0-8,0.8-11.2,3.2c6.4,4,10.4,10.4,10.4,17.6v82.4v0.8c0,3.2,0,6.4,0,9.6
		l-0.8,15.2l12.8-8c6.4-4,9.6-10.4,10.4-17.6v-82.4C314.648,41.719,305.048,32.919,293.048,32.919
		C293.848,32.919,293.048,32.919,293.048,32.919z"/>
	<path style="fill:#F7EEBA;" d="M269.048,76.119c0,0-9.6,2.4-24,5.6v40c0,5.6-2.4,11.2-7.2,14.4c3.2,2.4,7.2,4,11.2,4
		c10.4,0,18.4-8,18.4-18.4v-40h1.6C269.048,78.519,269.048,76.919,269.048,76.119z"/>
</g>
<g>
	<path style="fill:#4A2328;" d="M293.048,24.919c-8,0-15.2,3.2-20.8,8.8c-9.6-9.6-24-12-36-4.8c-6.4-21.6-28.8-33.6-50.4-27.2
		c-12.8,4-22.4,12.8-27.2,25.6c-15.2-10.4-36-7.2-46.4,7.2c-10.4,15.2-7.2,36,7.2,46.4c0.8,0.8,1.6,0.8,1.6,1.6
		c-1.6,27.2-1.6,55.2,0,82.4c2.4,16,5.6,32,8.8,47.2c10.4,46.4,26.4,116,17.6,157.6c-2.4,12-6.4,23.2-12,34.4
		c-1.6,3.2-1.6,7.2,1.6,9.6c2.4,2.4,17.6,13.6,68,13.6h8.8c50.4,0,65.6-11.2,68-13.6c3.2-2.4,3.2-7.2,1.6-10.4
		c-5.6-11.2-8.8-22.4-12-34.4c-9.6-41.6,6.4-111.2,16.8-157.6c4-16,7.2-31.2,9.6-47.2l0,0c13.6-2.4,23.2-14.4,23.2-28v-82.4
		C322.648,37.719,309.048,24.919,293.048,24.919z M215.448,412.119h-8.8c-17.6,0.8-35.2-1.6-52-7.2c4-9.6,6.4-18.4,8.8-28
		c14.4,4,29.6,6.4,45.6,6.4c16.8,0,32.8-2.4,48.8-6.4c2.4,9.6,5.6,19.2,8.8,28C250.648,410.519,233.048,412.919,215.448,412.119z
		 M283.448,163.319c-2.4,15.2-4.8,30.4-8.8,44.8c-10.4,46.4-24,108-19.2,152.8c-28.8,7.2-59.2,7.2-88.8,0
		c5.6-44.8-8.8-106.4-19.2-152.8c-4-15.2-6.4-29.6-8.8-44.8c-1.6-25.6-1.6-50.4-0.8-76h1.6l0,0c23.2,5.6,47.2,8.8,70.4,8.8
		c4,0,8,0,12,0v26.4c0,14.4,12,26.4,26.4,26.4s26.4-12,26.4-26.4v-33.6l8-1.6C284.248,112.119,284.248,137.719,283.448,163.319
		L283.448,163.319z M306.648,136.119c0,4.8-2.4,8.8-6.4,11.2c1.6-33.6-0.8-68.8-0.8-71.2c0-4.8-4-8-8.8-7.2c-0.8,0-0.8,0-1.6,0
		c0,0-9.6,2.4-23.2,5.6c-4,0.8-6.4,4-6.4,8v40c0,5.6-4.8,10.4-10.4,10.4s-10.4-4.8-10.4-10.4v-35.2c0-4.8-3.2-8-8-8h-0.8
		c-7.2,0.8-12.8,0.8-19.2,0.8c-26.4,0-53.6-4-79.2-11.2c-5.6-3.2-8.8-8.8-8.8-15.2c-0.8-9.6,7.2-17.6,16-18.4
		c9.6-0.8,17.6,7.2,18.4,16.8l0,0c0,4,4,7.2,8,7.2h2.4c4.8,0,8-4,8-8c0-0.8,0-1.6-0.8-2.4c-0.8-2.4-1.6-5.6-1.6-8.8
		c0-13.6,11.2-24,24-24s24,11.2,24,24c0,2.4-0.8,4.8-1.6,7.2c-1.6,4,0.8,8.8,5.6,9.6c0.8,0,1.6,0,2.4,0h3.2c4,0,7.2-2.4,8-6.4
		c1.6-7.2,8-12,15.2-10.4c4.8,0.8,9.6,4.8,10.4,10.4c0.8,4,4,6.4,8,6.4s8-2.4,8.8-6.4c1.6-7.2,8-12,15.2-10.4
		c5.6,0.8,10.4,6.4,10.4,12.8V136.119z"/>
	<path style="fill:#4A2328;" d="M210.648,176.919c-25.6,0-46.4,20.8-46.4,46.4s20.8,46.4,46.4,46.4s46.4-20.8,46.4-46.4
		S236.248,176.919,210.648,176.919z M210.648,253.719c-16.8,0-30.4-13.6-30.4-30.4s13.6-30.4,30.4-30.4s30.4,13.6,30.4,30.4
		C241.848,240.119,228.248,253.719,210.648,253.719C211.448,253.719,211.448,253.719,210.648,253.719L210.648,253.719z"/>
</g>
<g>
</g>
<g>
</g>
<g>
</g>
<g>
</g>
<g>
</g>
<g>
</g>
<g>
</g>
<g>
</g>
<g>
</g>
<g>
</g>
<g>
</g>
<g>
</g>
<g>
</g>
<g>
</g>
<g>
</g>
</svg>
